<?xml version="1.0" standalone="no"?>
<!DOCTYPE svg PUBLIC "-//W3C//DTD SVG 20010904//EN"
 "http://www.w3.org/TR/2001/REC-SVG-20010904/DTD/svg10.dtd">
<svg version="1.0" xmlns="http://www.w3.org/2000/svg"
 width="100.000000pt" height="100.000000pt" viewBox="0 0 100.000000 100.000000"
 preserveAspectRatio="xMidYMid meet">

<g transform="translate(0.000000,100.000000) scale(0.100000,-0.100000)"
fill="#000000" stroke="none">
<path d="M362 888 c-31 -57 -55 -74 -132 -93 -134 -32 -158 -59 -146 -168 15
-139 61 -294 134 -450 l45 -97 236 2 236 3 37 75 c79 162 159 465 143 540 -10
43 -43 67 -130 90 -100 27 -116 38 -140 89 l-18 41 -124 0 -124 0 -17 -32z
m243 -28 c4 -11 22 -36 41 -54 34 -33 35 -35 21 -68 -8 -18 -32 -50 -55 -70
-70 -63 -154 -63 -224 0 -23 20 -47 52 -55 71 -14 32 -13 35 15 65 16 17 35
41 41 54 11 21 18 22 111 22 90 0 99 -2 105 -20z m-310 -129 c10 -45 79 -117
131 -137 l45 -17 -31 -32 c-16 -17 -30 -35 -30 -40 0 -19 76 -125 90 -125 14
0 90 106 90 125 0 5 -14 23 -30 40 l-31 32 45 17 c52 20 121 92 131 137 8 33
17 35 93 15 71 -19 84 -37 77 -106 -14 -127 -66 -301 -132 -443 l-36 -77 -208
0 -209 0 -35 71 c-48 95 -101 254 -120 363 -26 151 -20 168 60 191 79 21 92
19 100 -14z m230 -212 c18 -19 18 -22 3 -47 -9 -15 -22 -27 -28 -27 -6 0 -19
12 -28 27 -15 25 -15 28 3 47 10 12 21 21 25 21 4 0 15 -9 25 -21z"/>
</g>
</svg>
