<?xml version="1.0" standalone="no"?>
<!DOCTYPE svg PUBLIC "-//W3C//DTD SVG 20010904//EN"
 "http://www.w3.org/TR/2001/REC-SVG-20010904/DTD/svg10.dtd">
<svg version="1.0" xmlns="http://www.w3.org/2000/svg"
 width="100.000000pt" height="100.000000pt" viewBox="0 0 100.000000 100.000000"
 preserveAspectRatio="xMidYMid meet">

<g transform="translate(0.000000,100.000000) scale(0.100000,-0.100000)"
fill="#000000" stroke="none">
<path d="M444 946 c-54 -24 -104 -109 -104 -178 0 -16 7 -43 16 -59 8 -17 14
-32 12 -34 -2 -1 -19 -10 -38 -20 -167 -84 -254 -234 -266 -459 -7 -132 2
-150 72 -154 66 -4 74 7 85 113 5 49 18 108 31 138 l23 52 6 -111 c4 -79 11
-122 25 -150 l19 -39 175 0 175 0 19 39 c14 28 21 71 25 150 l6 111 23 -52
c13 -30 26 -89 31 -138 11 -106 19 -117 85 -113 70 4 79 22 72 154 -12 225
-99 375 -266 459 -19 10 -36 19 -38 20 -2 2 4 17 12 34 51 98 -39 252 -146
251 -13 -1 -37 -7 -54 -14z m110 -47 c60 -48 84 -144 46 -192 -11 -14 -20 -31
-20 -39 0 -7 34 -30 75 -51 150 -77 224 -202 241 -408 9 -104 2 -129 -36 -129
-33 0 -35 4 -44 102 -4 32 -15 82 -26 111 -24 63 -83 137 -98 122 -5 -5 -12
-71 -14 -145 -3 -80 -10 -146 -18 -162 l-13 -28 -147 0 -147 0 -13 28 c-8 16
-15 82 -18 162 -2 74 -9 140 -14 145 -15 15 -74 -59 -98 -122 -11 -29 -22 -79
-26 -111 -9 -98 -11 -102 -44 -102 -38 0 -45 25 -36 129 13 154 52 249 136
331 32 31 83 68 118 84 34 16 62 36 62 44 0 8 -9 25 -20 39 -38 49 -19 137 39
186 39 32 79 35 115 6z"/>
<path d="M450 840 c-56 -56 -24 -160 50 -160 52 0 90 58 76 115 -9 37 -42 65
-76 65 -17 0 -39 -9 -50 -20z m84 -42 c14 -23 -4 -72 -27 -76 -26 -5 -47 16
-47 47 0 49 49 68 74 29z"/>
<path d="M406 292 c-2 -4 -9 -36 -16 -71 -11 -63 -5 -91 18 -77 12 7 35 133
27 146 -7 12 -22 13 -29 2z"/>
<path d="M566 291 c-9 -14 14 -140 26 -147 24 -15 30 15 16 82 -12 64 -28 88
-42 65z"/>
</g>
</svg>
