<?xml version="1.0" standalone="no"?>
<!DOCTYPE svg PUBLIC "-//W3C//DTD SVG 20010904//EN"
 "http://www.w3.org/TR/2001/REC-SVG-20010904/DTD/svg10.dtd">
<svg version="1.0" xmlns="http://www.w3.org/2000/svg"
 width="100.000000pt" height="100.000000pt" viewBox="0 0 100.000000 100.000000"
 preserveAspectRatio="xMidYMid meet">

<g transform="translate(0.000000,100.000000) scale(0.100000,-0.100000)"
fill="#000000" stroke="none">
<path d="M263 911 c-67 -32 -74 -41 -157 -193 -26 -48 -45 -92 -41 -98 3 -5
36 -26 72 -46 l66 -37 22 27 22 28 7 -95 c6 -83 3 -116 -24 -256 -17 -89 -28
-166 -25 -171 8 -13 582 -13 590 0 3 5 -8 80 -25 167 -27 139 -30 170 -24 256
l7 99 22 -28 22 -27 66 37 c36 20 69 41 72 46 4 6 -15 50 -41 98 -83 152 -90
161 -157 193 -61 29 -64 29 -237 29 -173 0 -176 0 -237 -29z m367 -21 c0 -6
-15 -27 -34 -48 -33 -35 -38 -37 -96 -37 -58 0 -63 2 -96 37 -19 21 -34 42
-34 48 0 6 49 10 130 10 81 0 130 -4 130 -10z m-290 -29 c23 -56 95 -101 163
-101 64 0 149 61 170 123 6 19 85 -22 112 -57 27 -37 109 -186 104 -190 -21
-15 -81 -47 -83 -45 -2 2 -15 23 -30 47 -46 73 -51 65 -67 -104 -11 -124 -11
-135 15 -265 14 -75 26 -143 26 -152 0 -15 -24 -17 -250 -17 -226 0 -250 2
-250 17 0 9 12 77 26 152 26 130 26 141 15 265 -16 169 -21 177 -67 104 -15
-24 -28 -45 -30 -47 -2 -2 -62 30 -83 45 -4 3 74 147 101 187 19 26 80 66 104
67 6 0 17 -13 24 -29z"/>
</g>
</svg>
